<?xml version="1.0" standalone="no"?>
<!DOCTYPE svg PUBLIC "-//W3C//DTD SVG 20010904//EN"
 "http://www.w3.org/TR/2001/REC-SVG-20010904/DTD/svg10.dtd">
<svg version="1.0" xmlns="http://www.w3.org/2000/svg"
 width="1280.000000pt" height="674.000000pt" viewBox="0 0 1280.000000 674.000000"
 preserveAspectRatio="xMidYMid meet">

<g transform="translate(0.000000,674.000000) scale(0.100000,-0.100000)"
fill="#000000" stroke="none">
<path d="M0 4925 l0 -1815 6400 0 6400 0 0 260 0 260 -3840 0 -3840 0 0 260 0
260 3840 0 3840 0 0 260 0 260 -3840 0 -3840 0 0 260 0 260 3840 0 3840 0 0
255 0 255 -3840 0 -3840 0 0 260 0 260 3840 0 3840 0 0 260 0 260 -6400 0
-6400 0 0 -1815z m451 1585 l23 -70 75 0 76 0 -58 -41 c-31 -22 -57 -46 -57
-52 0 -7 9 -40 19 -74 l19 -63 -57 40 c-31 22 -61 40 -65 40 -5 0 -31 -16 -58
-36 -27 -20 -51 -34 -53 -32 -2 2 4 33 15 68 11 35 16 67 12 70 -4 3 -30 21
-57 40 l-50 35 72 3 72 3 23 69 c12 39 23 70 24 70 2 0 13 -31 25 -70z m1802
-72 l72 -3 -50 -35 c-27 -19 -53 -37 -57 -40 -4 -3 1 -35 12 -70 11 -35 18
-66 16 -68 -2 -2 -26 13 -54 32 -27 20 -53 36 -58 36 -4 0 -34 -18 -65 -40
l-57 -40 19 63 c10 34 19 67 19 74 0 7 -25 30 -57 52 l-56 41 74 0 75 0 24 73
23 72 24 -72 24 -72 72 -3z m758 72 l23 -70 75 0 76 0 -58 -41 c-31 -22 -57
-46 -57 -52 0 -7 9 -40 19 -74 l19 -63 -57 40 c-31 22 -61 40 -65 40 -5 0 -31
-16 -58 -36 -27 -20 -51 -34 -53 -32 -2 2 4 33 15 68 11 35 16 67 12 70 -4 3
-30 21 -57 40 l-50 35 72 3 72 3 23 69 c12 39 23 70 24 70 2 0 13 -31 25 -70z
m1802 -72 l72 -3 -50 -35 c-27 -19 -53 -37 -57 -40 -4 -3 1 -35 12 -70 11 -35
18 -66 16 -68 -2 -2 -26 13 -54 32 -27 20 -53 36 -58 36 -4 0 -34 -18 -65 -40
l-57 -40 19 63 c10 34 19 67 19 74 0 7 -25 30 -57 52 l-56 41 74 0 75 0 24 73
23 72 24 -72 24 -72 72 -3z m-3507 70 l20 -63 74 -5 74 -5 -57 -39 c-31 -22
-57 -42 -57 -45 0 -3 9 -35 20 -71 11 -36 20 -66 20 -68 0 -1 -25 16 -55 38
-30 22 -59 40 -65 40 -6 0 -34 -18 -63 -39 -28 -22 -53 -39 -54 -37 -1 1 6 31
17 67 11 35 20 67 20 70 0 4 -25 24 -56 45 l-57 39 74 5 73 5 20 63 c11 34 23
62 26 62 3 0 15 -28 26 -62z m2560 0 l20 -63 74 -5 74 -5 -57 -39 c-31 -22
-57 -42 -57 -45 0 -3 9 -35 20 -71 11 -36 20 -66 20 -68 0 -1 -25 16 -55 38
-30 22 -59 40 -65 40 -6 0 -34 -18 -63 -39 -28 -22 -53 -39 -54 -37 -1 1 6 31
17 67 11 35 20 67 20 70 0 4 -25 24 -56 45 l-57 39 74 5 73 5 20 63 c11 34 23
62 26 62 3 0 15 -28 26 -62z m-2888 -428 l76 0 -62 -45 c-34 -25 -62 -47 -62
-49 0 -1 9 -29 20 -61 11 -32 20 -62 20 -67 0 -5 -25 10 -55 32 -30 22 -57 40
-61 40 -3 0 -27 -15 -53 -33 -25 -19 -51 -37 -58 -41 -7 -4 -2 22 12 64 l24
70 -60 43 -61 42 74 3 74 3 24 72 23 72 24 -72 25 -73 76 0z m753 70 l23 -69
74 -3 75 -3 -61 -43 -61 -42 24 -70 c14 -42 19 -68 12 -64 -7 4 -34 23 -61 42
-34 25 -52 33 -62 26 -7 -5 -34 -24 -59 -42 -25 -18 -45 -29 -45 -24 0 5 9 35
20 67 11 32 20 60 20 61 0 2 -28 24 -62 49 l-62 45 76 0 77 0 22 70 c13 39 24
70 25 70 2 0 13 -31 25 -70z m1807 -70 l76 0 -62 -45 c-34 -25 -62 -47 -62
-49 0 -1 9 -29 20 -61 11 -32 20 -62 20 -67 0 -5 -25 10 -55 32 -30 22 -57 40
-61 40 -3 0 -27 -15 -53 -33 -25 -19 -51 -37 -58 -41 -7 -4 -2 22 12 64 l24
70 -60 43 -61 42 74 3 74 3 24 72 23 72 24 -72 25 -73 76 0z m753 70 l23 -69
74 -3 75 -3 -61 -43 -61 -42 24 -70 c14 -42 19 -68 12 -64 -7 4 -34 23 -61 42
-34 25 -52 33 -62 26 -7 -5 -34 -24 -59 -42 -25 -18 -45 -29 -45 -24 0 5 9 35
20 67 11 32 20 60 20 61 0 2 -28 24 -62 49 l-62 45 76 0 77 0 22 70 c13 39 24
70 25 70 2 0 13 -31 25 -70z m-1705 -2 l20 -63 74 -5 75 -5 -55 -39 c-30 -22
-57 -41 -59 -43 -4 -3 20 -88 37 -132 3 -8 -21 4 -54 27 -33 23 -62 42 -65 42
-3 0 -29 -18 -59 -40 -29 -22 -55 -38 -57 -37 -2 2 6 30 17 62 11 32 20 63 20
69 0 6 -26 29 -58 51 l-57 40 74 5 75 5 20 63 c11 34 23 62 26 62 3 0 15 -28
26 -62z m-2132 -367 l17 -60 77 -3 77 -3 -61 -44 -62 -43 23 -69 c13 -38 21
-69 18 -69 -3 0 -30 18 -59 40 -29 22 -55 40 -57 40 -2 0 -27 -18 -57 -40 -29
-22 -55 -38 -58 -36 -3 4 15 68 35 122 2 7 -24 31 -58 55 l-62 44 78 5 79 5
18 63 c11 34 23 60 27 58 5 -3 16 -32 25 -65z m851 4 l18 -65 76 0 76 -1 -26
-22 c-14 -12 -40 -34 -59 -48 l-33 -25 21 -64 c12 -35 20 -65 19 -67 -2 -2
-29 15 -61 38 l-57 41 -55 -42 c-31 -23 -57 -40 -60 -38 -2 3 6 33 18 68 l21
64 -33 26 c-18 14 -44 35 -59 47 l-26 22 76 1 76 0 18 65 c9 36 21 65 25 65 4
0 16 -29 25 -65z m854 -2 l17 -58 79 -5 78 -5 -61 -43 c-34 -24 -62 -45 -62
-46 0 -2 9 -29 20 -61 11 -32 20 -62 20 -67 0 -5 -27 9 -59 32 l-59 42 -55
-41 c-29 -23 -57 -41 -60 -41 -3 0 5 31 18 69 l23 69 -61 44 -62 43 77 3 77 3
11 41 c17 60 30 92 36 85 3 -3 13 -31 23 -64z m855 -2 l17 -60 77 -3 77 -3
-61 -44 -62 -43 23 -69 c13 -38 21 -69 18 -69 -3 0 -30 18 -59 40 -29 22 -55
40 -57 40 -2 0 -27 -18 -57 -40 -29 -22 -55 -38 -58 -36 -3 4 15 68 35 122 2
7 -24 31 -58 55 l-62 44 78 5 79 5 18 63 c11 34 23 60 27 58 5 -3 16 -32 25
-65z m851 4 l18 -65 76 0 76 -1 -26 -22 c-14 -12 -40 -34 -59 -48 l-33 -25 21
-64 c12 -35 20 -65 19 -67 -2 -2 -29 15 -61 38 l-57 41 -55 -42 c-31 -23 -57
-40 -60 -38 -2 3 6 33 18 68 l21 64 -33 26 c-18 14 -44 35 -59 47 l-26 22 76
1 76 0 18 65 c9 36 21 65 25 65 4 0 16 -29 25 -65z m854 -2 l17 -58 79 -5 78
-5 -61 -43 c-34 -24 -62 -45 -62 -46 0 -2 9 -29 20 -61 11 -32 20 -62 20 -67
0 -5 -27 9 -59 32 l-59 42 -55 -41 c-29 -23 -57 -41 -60 -41 -3 0 5 31 18 69
l23 69 -61 44 -62 43 77 3 77 3 11 41 c17 60 30 92 36 85 3 -3 13 -31 23 -64z
m-3746 -435 l71 -3 -57 -39 c-32 -22 -56 -45 -54 -50 20 -56 38 -118 35 -122
-3 -2 -30 14 -60 36 l-55 39 -54 -39 c-29 -22 -56 -40 -60 -40 -4 0 1 25 12
57 10 31 19 62 19 70 0 7 -24 30 -52 51 l-53 37 70 5 70 5 24 69 25 70 24 -72
23 -71 72 -3z m759 72 l23 -65 70 -5 70 -5 -53 -38 c-28 -21 -52 -44 -52 -51
0 -7 9 -38 19 -69 11 -32 16 -57 12 -57 -4 0 -31 18 -61 40 -31 23 -58 36 -64
32 -6 -5 -30 -23 -54 -41 -24 -19 -45 -31 -48 -28 -5 5 11 62 33 123 2 5 -22
28 -54 50 l-57 39 72 3 71 3 22 69 c13 38 24 68 25 67 2 -2 13 -32 26 -67z
m1801 -72 l71 -3 -57 -39 c-32 -22 -56 -45 -54 -50 20 -56 38 -118 35 -122 -3
-2 -30 14 -60 36 l-55 39 -54 -39 c-29 -22 -56 -40 -60 -40 -4 0 1 25 12 57
10 31 19 62 19 70 0 7 -24 30 -52 51 l-53 37 70 5 70 5 24 69 25 70 24 -72 23
-71 72 -3z m759 72 l23 -65 70 -5 70 -5 -53 -38 c-28 -21 -52 -44 -52 -51 0
-7 9 -38 19 -69 11 -32 16 -57 12 -57 -4 0 -31 18 -61 40 -31 23 -58 36 -64
32 -6 -5 -30 -23 -54 -41 -24 -19 -45 -31 -48 -28 -5 5 11 62 33 123 2 5 -22
28 -54 50 l-57 39 72 3 71 3 22 69 c13 38 24 68 25 67 2 -2 13 -32 26 -67z
m-1706 -2 l20 -63 71 -5 72 -5 -55 -39 c-30 -22 -54 -43 -54 -46 0 -4 9 -33
20 -65 11 -32 18 -60 15 -63 -2 -3 -29 14 -59 36 l-54 41 -57 -40 c-31 -23
-58 -39 -61 -37 -2 3 5 31 16 63 11 32 20 62 20 66 0 4 -26 26 -57 48 l-57 40
74 3 74 3 20 63 c11 34 23 62 26 62 3 0 15 -28 26 -62z m-2135 -358 l23 -70
75 0 75 0 -57 -42 c-31 -23 -57 -49 -57 -58 0 -9 9 -42 19 -73 11 -32 19 -57
17 -57 -1 0 -27 18 -56 40 -29 22 -58 40 -63 40 -6 0 -34 -18 -64 -40 -29 -23
-53 -37 -53 -33 0 4 9 37 20 72 11 35 19 65 18 66 -2 1 -28 19 -58 41 l-55 39
72 3 72 3 23 69 c12 39 23 70 24 70 2 0 13 -31 25 -70z m1806 -70 l76 0 -59
-42 c-32 -23 -60 -42 -62 -43 -1 -1 7 -31 17 -66 11 -35 18 -65 16 -67 -2 -3
-26 12 -53 32 -27 20 -54 36 -59 36 -5 0 -34 -18 -63 -40 -29 -22 -55 -40 -56
-40 -1 0 7 27 17 61 10 33 19 67 19 74 0 7 -26 32 -57 54 l-58 41 76 0 75 0
24 73 23 72 24 -72 25 -73 75 0z m754 70 l23 -70 75 0 75 0 -57 -42 c-31 -23
-57 -49 -57 -58 0 -9 9 -42 19 -73 11 -32 19 -57 17 -57 -1 0 -27 18 -56 40
-29 22 -58 40 -63 40 -6 0 -34 -18 -64 -40 -29 -23 -53 -37 -53 -33 0 4 9 37
20 72 11 35 19 65 18 66 -2 1 -28 19 -58 41 l-55 39 72 3 72 3 23 69 c12 39
23 70 24 70 2 0 13 -31 25 -70z m1806 -70 l76 0 -59 -42 c-32 -23 -60 -42 -62
-43 -1 -1 7 -31 17 -66 11 -35 18 -65 16 -67 -2 -3 -26 12 -53 32 -27 20 -54
36 -59 36 -5 0 -34 -18 -63 -40 -29 -22 -55 -40 -56 -40 -1 0 7 27 17 61 10
33 19 67 19 74 0 7 -26 32 -57 54 l-58 41 76 0 75 0 24 73 23 72 24 -72 25
-73 75 0z m-3511 68 l20 -63 73 -5 73 -5 -56 -40 c-30 -22 -56 -43 -56 -47 0
-3 9 -35 20 -69 10 -35 18 -64 17 -65 -1 -2 -26 15 -54 37 -29 21 -56 39 -61
39 -5 0 -34 -18 -65 -41 -32 -22 -57 -39 -57 -37 0 2 9 32 20 66 11 35 20 67
20 71 0 4 -26 25 -57 47 l-57 39 74 5 74 5 20 63 c11 34 23 62 26 62 3 0 15
-28 26 -62z m2560 0 l20 -63 73 -5 73 -5 -56 -40 c-30 -22 -56 -43 -56 -47 0
-3 9 -35 20 -69 10 -35 18 -64 17 -65 -1 -2 -26 15 -54 37 -29 21 -56 39 -61
39 -5 0 -34 -18 -65 -41 -32 -22 -57 -39 -57 -37 0 2 9 32 20 66 11 35 20 67
20 71 0 4 -26 25 -57 47 l-57 39 74 5 74 5 20 63 c11 34 23 62 26 62 3 0 15
-28 26 -62z m-2986 -363 l22 -65 69 0 c38 0 69 -4 69 -8 0 -4 -12 -15 -27 -24
-16 -10 -41 -27 -56 -40 l-28 -23 21 -59 c11 -33 20 -63 20 -68 0 -5 -20 6
-45 24 -25 18 -52 37 -59 42 -10 7 -30 -2 -70 -32 -30 -23 -57 -42 -60 -42 -3
0 6 31 19 70 l24 70 -61 42 -61 43 75 3 75 3 13 41 c17 57 29 88 34 88 2 0 14
-29 26 -65z m855 -4 l18 -60 75 -3 74 -3 -60 -44 -60 -43 23 -69 c13 -38 22
-69 19 -69 -3 0 -30 19 -60 42 l-55 41 -60 -42 c-32 -23 -59 -38 -59 -33 0 5
9 35 20 68 l21 59 -33 25 c-17 14 -43 35 -57 47 l-26 22 72 1 71 0 22 65 c12
36 25 63 29 61 4 -3 16 -32 26 -65z m851 7 l20 -63 74 -5 74 -5 -57 -43 c-31
-23 -57 -46 -57 -51 0 -4 9 -34 20 -66 11 -32 19 -60 17 -62 -2 -1 -28 15 -57
37 -30 22 -56 40 -59 40 -3 0 -31 -18 -60 -40 -30 -22 -56 -38 -58 -36 -2 1 6
29 17 61 11 32 20 63 20 69 -1 6 -26 29 -58 51 l-57 40 74 5 75 5 20 63 c11
34 23 62 26 62 3 0 15 -28 26 -62z m854 -3 l22 -65 69 0 c38 0 69 -4 69 -8 0
-4 -12 -15 -27 -24 -16 -10 -41 -27 -56 -40 l-28 -23 21 -59 c11 -33 20 -63
20 -68 0 -5 -20 6 -45 24 -25 18 -52 37 -59 42 -10 7 -30 -2 -70 -32 -30 -23
-57 -42 -60 -42 -3 0 6 31 19 70 l24 70 -61 42 -61 43 75 3 75 3 13 41 c17 57
29 88 34 88 2 0 14 -29 26 -65z m855 -4 l18 -60 75 -3 74 -3 -60 -44 -60 -43
23 -69 c13 -38 22 -69 19 -69 -3 0 -30 19 -60 42 l-55 41 -60 -42 c-32 -23
-59 -38 -59 -33 0 5 9 35 20 68 l21 59 -33 25 c-17 14 -43 35 -57 47 l-26 22
72 1 71 0 22 65 c12 36 25 63 29 61 4 -3 16 -32 26 -65z m-3841 -363 l17 -57
77 -3 77 -3 -61 -45 -61 -45 23 -67 c12 -38 20 -68 18 -68 -3 0 -31 18 -61 40
l-56 40 -55 -40 c-31 -22 -58 -38 -60 -35 -3 3 15 67 35 121 2 5 -21 28 -51
50 -31 21 -56 42 -56 46 0 4 33 8 72 10 l72 3 19 63 c11 35 22 60 26 55 4 -4
15 -34 25 -65z m851 7 l17 -65 74 0 c41 0 74 -3 74 -7 -1 -5 -25 -25 -55 -46
-30 -21 -55 -41 -55 -46 0 -4 9 -34 20 -66 11 -32 18 -60 16 -63 -3 -2 -29 15
-60 38 l-55 42 -56 -42 c-31 -23 -58 -40 -61 -38 -2 3 6 33 18 68 l21 64 -33
25 c-19 14 -45 36 -59 48 l-26 22 76 1 77 0 17 65 c10 36 21 65 25 65 4 0 15
-29 25 -65z m853 -1 l18 -59 72 -3 c40 -2 72 -6 72 -11 0 -4 -25 -25 -55 -46
-31 -21 -54 -43 -52 -49 20 -55 38 -118 35 -122 -3 -2 -28 14 -58 36 -29 22
-58 37 -64 33 -6 -3 -32 -21 -57 -40 -26 -18 -49 -33 -52 -33 -3 0 5 31 18 69
l23 69 -62 43 -61 44 77 3 78 3 16 57 c26 91 26 91 52 6z m856 -6 l17 -57 77
-3 77 -3 -61 -45 -61 -45 23 -67 c12 -38 20 -68 18 -68 -3 0 -31 18 -61 40
l-56 40 -55 -40 c-31 -22 -58 -38 -60 -35 -3 3 15 67 35 121 2 5 -21 28 -51
50 -31 21 -56 42 -56 46 0 4 33 8 72 10 l72 3 19 63 c11 35 22 60 26 55 4 -4
15 -34 25 -65z m851 7 l17 -65 74 0 c41 0 74 -3 74 -7 -1 -5 -25 -25 -55 -46
-30 -21 -55 -41 -55 -46 0 -4 9 -34 20 -66 11 -32 18 -60 16 -63 -3 -2 -29 15
-60 38 l-55 42 -56 -42 c-31 -23 -58 -40 -61 -38 -2 3 6 33 18 68 l21 64 -33
25 c-19 14 -45 36 -59 48 l-26 22 76 1 77 0 17 65 c10 36 21 65 25 65 4 0 15
-29 25 -65z m853 -1 l18 -59 72 -3 c40 -2 72 -6 72 -11 0 -4 -25 -25 -55 -46
-31 -21 -54 -43 -52 -49 20 -55 38 -118 35 -122 -3 -2 -28 14 -58 36 -29 22
-58 37 -64 33 -6 -3 -32 -21 -57 -40 -26 -18 -49 -33 -52 -33 -3 0 5 31 18 69
l23 69 -62 43 -61 44 77 3 78 3 16 57 c26 91 26 91 52 6z m-3745 -436 l72 -3
-50 -35 c-27 -19 -52 -37 -57 -40 -4 -3 2 -34 13 -69 10 -35 17 -66 15 -68 -3
-3 -28 13 -57 35 l-53 41 -63 -45 -62 -44 15 47 c31 101 32 96 -32 142 l-57
41 74 0 75 0 24 73 23 72 24 -72 24 -72 72 -3z m758 72 l23 -70 75 0 74 0 -57
-41 c-64 -46 -63 -41 -32 -142 l15 -48 -61 45 -62 44 -54 -40 c-29 -22 -56
-38 -58 -35 -2 2 5 33 15 68 11 35 17 66 12 69 -4 3 -29 21 -55 40 l-48 35 70
3 71 3 23 69 c12 39 23 70 24 70 2 0 13 -31 25 -70z m1802 -72 l72 -3 -50 -35
c-27 -19 -52 -37 -57 -40 -4 -3 2 -34 13 -69 10 -35 17 -66 15 -68 -3 -3 -28
13 -57 35 l-53 41 -63 -45 -62 -44 15 47 c31 101 32 96 -32 142 l-57 41 74 0
75 0 24 73 23 72 24 -72 24 -72 72 -3z m758 72 l23 -70 75 0 74 0 -57 -41
c-64 -46 -63 -41 -32 -142 l15 -48 -61 45 -62 44 -54 -40 c-29 -22 -56 -38
-58 -35 -2 2 5 33 15 68 11 35 17 66 12 69 -4 3 -29 21 -55 40 l-48 35 70 3
71 3 23 69 c12 39 23 70 24 70 2 0 13 -31 25 -70z m-1705 -2 l20 -63 73 -5 74
-5 -57 -39 c-31 -21 -56 -42 -56 -46 0 -4 6 -25 13 -46 8 -22 17 -52 21 -67
l7 -28 -54 40 c-30 23 -59 41 -66 41 -6 0 -36 -18 -66 -40 -30 -22 -55 -39
-55 -36 0 2 9 34 21 71 11 37 18 69 16 71 -2 3 -28 22 -57 44 l-52 39 73 3 73
3 20 63 c11 34 23 62 26 62 3 0 15 -28 26 -62z m-2135 -358 l23 -69 74 -3 74
-3 -61 -42 -60 -43 24 -70 c14 -42 19 -68 12 -63 -7 4 -33 22 -58 40 -26 18
-49 33 -53 33 -4 0 -31 -18 -61 -40 -30 -22 -55 -37 -55 -32 0 5 9 35 20 67
11 32 20 60 20 62 0 1 -27 23 -61 48 l-61 45 75 0 76 0 22 70 c13 39 24 70 25
70 2 0 13 -31 25 -70z m1807 -70 l76 0 -62 -45 c-34 -25 -62 -47 -62 -49 0 -1
9 -29 20 -61 11 -32 20 -62 20 -67 0 -5 -24 9 -53 32 -30 22 -57 40 -62 40 -4
0 -28 -15 -54 -33 -25 -18 -51 -36 -58 -40 -7 -5 -2 21 12 63 l24 70 -60 43
-61 42 74 3 74 3 24 72 23 72 24 -72 25 -73 76 0z m753 70 l23 -69 74 -3 74
-3 -61 -42 -60 -43 24 -70 c14 -42 19 -68 12 -63 -7 4 -33 22 -58 40 -26 18
-49 33 -53 33 -4 0 -31 -18 -61 -40 -30 -22 -55 -37 -55 -32 0 5 9 35 20 67
11 32 20 60 20 62 0 1 -27 23 -61 48 l-61 45 75 0 76 0 22 70 c13 39 24 70 25
70 2 0 13 -31 25 -70z m1807 -70 l76 0 -62 -45 c-34 -25 -62 -47 -62 -49 0 -1
9 -29 20 -61 11 -32 20 -62 20 -67 0 -5 -24 9 -53 32 -30 22 -57 40 -62 40 -4
0 -28 -15 -54 -33 -25 -18 -51 -36 -58 -40 -7 -5 -2 21 12 63 l24 70 -60 43
-61 42 74 3 74 3 24 72 23 72 24 -72 25 -73 76 0z m-3512 68 l20 -63 75 -5 74
-5 -57 -40 c-32 -22 -58 -45 -58 -51 0 -6 9 -37 20 -69 11 -32 20 -60 20 -62
0 -2 -27 15 -60 38 l-59 42 -61 -42 c-33 -23 -60 -40 -60 -38 0 2 9 30 20 62
11 32 20 63 20 69 0 6 -26 29 -56 51 l-56 40 73 5 73 5 20 63 c11 34 23 62 26
62 3 0 15 -28 26 -62z m2560 0 l20 -63 75 -5 74 -5 -57 -40 c-32 -22 -58 -45
-58 -51 0 -6 9 -37 20 -69 11 -32 20 -60 20 -62 0 -2 -27 15 -60 38 l-59 42
-61 -42 c-33 -23 -60 -40 -60 -38 0 2 9 30 20 62 11 32 20 63 20 69 0 6 -26
29 -56 51 l-56 40 73 5 73 5 20 63 c11 34 23 62 26 62 3 0 15 -28 26 -62z"/>
<path d="M0 2335 l0 -255 6400 0 6400 0 0 255 0 255 -6400 0 -6400 0 0 -255z"/>
<path d="M0 1300 l0 -260 6400 0 6400 0 0 260 0 260 -6400 0 -6400 0 0 -260z"/>
<path d="M0 260 l0 -260 6400 0 6400 0 0 260 0 260 -6400 0 -6400 0 0 -260z"/>
</g>
</svg>
